<svg id="my-svg" width="100%" xmlns="http://www.w3.org/2000/svg" xmlns:xlink="http://www.w3.org/1999/xlink" class="flowchart" style="max-width: 1112px; background-color: white;" viewBox="0 0 1112 1352.4259033203125" role="graphics-document document" aria-roledescription="flowchart-v2"><style>#my-svg{font-family:"trebuchet ms",verdana,arial,sans-serif;font-size:16px;fill:#333;}@keyframes edge-animation-frame{from{stroke-dashoffset:0;}}@keyframes dash{to{stroke-dashoffset:0;}}#my-svg .edge-animation-slow{stroke-dasharray:9,5!important;stroke-dashoffset:900;animation:dash 50s linear infinite;stroke-linecap:round;}#my-svg .edge-animation-fast{stroke-dasharray:9,5!important;stroke-dashoffset:900;animation:dash 20s linear infinite;stroke-linecap:round;}#my-svg .error-icon{fill:#552222;}#my-svg .error-text{fill:#552222;stroke:#552222;}#my-svg .edge-thickness-normal{stroke-width:1px;}#my-svg .edge-thickness-thick{stroke-width:3.5px;}#my-svg .edge-pattern-solid{stroke-dasharray:0;}#my-svg .edge-thickness-invisible{stroke-width:0;fill:none;}#my-svg .edge-pattern-dashed{stroke-dasharray:3;}#my-svg .edge-pattern-dotted{stroke-dasharray:2;}#my-svg .marker{fill:#333333;stroke:#333333;}#my-svg .marker.cross{stroke:#333333;}#my-svg svg{font-family:"trebuchet ms",verdana,arial,sans-serif;font-size:16px;}#my-svg p{margin:0;}#my-svg .label{font-family:"trebuchet ms",verdana,arial,sans-serif;color:#333;}#my-svg .cluster-label text{fill:#333;}#my-svg .cluster-label span{color:#333;}#my-svg .cluster-label span p{background-color:transparent;}#my-svg .label text,#my-svg span{fill:#333;color:#333;}#my-svg .node rect,#my-svg .node circle,#my-svg .node ellipse,#my-svg .node polygon,#my-svg .node path{fill:#ECECFF;stroke:#9370DB;stroke-width:1px;}#my-svg .rough-node .label text,#my-svg .node .label text,#my-svg .image-shape .label,#my-svg .icon-shape .label{text-anchor:middle;}#my-svg .node .katex path{fill:#000;stroke:#000;stroke-width:1px;}#my-svg .rough-node .label,#my-svg .node .label,#my-svg .image-shape .label,#my-svg .icon-shape .label{text-align:center;}#my-svg .node.clickable{cursor:pointer;}#my-svg .root .anchor path{fill:#333333!important;stroke-width:0;stroke:#333333;}#my-svg .arrowheadPath{fill:#333333;}#my-svg .edgePath .path{stroke:#333333;stroke-width:2.0px;}#my-svg .flowchart-link{stroke:#333333;fill:none;}#my-svg .edgeLabel{background-color:rgba(232,232,232, 0.8);text-align:center;}#my-svg .edgeLabel p{background-color:rgba(232,232,232, 0.8);}#my-svg .edgeLabel rect{opacity:0.5;background-color:rgba(232,232,232, 0.8);fill:rgba(232,232,232, 0.8);}#my-svg .labelBkg{background-color:rgba(232, 232, 232, 0.5);}#my-svg .cluster rect{fill:#ffffde;stroke:#aaaa33;stroke-width:1px;}#my-svg .cluster text{fill:#333;}#my-svg .cluster span{color:#333;}#my-svg div.mermaidTooltip{position:absolute;text-align:center;max-width:200px;padding:2px;font-family:"trebuchet ms",verdana,arial,sans-serif;font-size:12px;background:hsl(80, 100%, 96.2745098039%);border:1px solid #aaaa33;border-radius:2px;pointer-events:none;z-index:100;}#my-svg .flowchartTitleText{text-anchor:middle;font-size:18px;fill:#333;}#my-svg rect.text{fill:none;stroke-width:0;}#my-svg .icon-shape,#my-svg .image-shape{background-color:rgba(232,232,232, 0.8);text-align:center;}#my-svg .icon-shape p,#my-svg .image-shape p{background-color:rgba(232,232,232, 0.8);padding:2px;}#my-svg .icon-shape rect,#my-svg .image-shape rect{opacity:0.5;background-color:rgba(232,232,232, 0.8);fill:rgba(232,232,232, 0.8);}#my-svg .label-icon{display:inline-block;height:1em;overflow:visible;vertical-align:-0.125em;}#my-svg .node .label-icon path{fill:currentColor;stroke:revert;stroke-width:revert;}#my-svg :root{--mermaid-font-family:"trebuchet ms",verdana,arial,sans-serif;}</style><g><marker id="my-svg_flowchart-v2-pointEnd" class="marker flowchart-v2" viewBox="0 0 10 10" refX="5" refY="5" markerUnits="userSpaceOnUse" markerWidth="8" markerHeight="8" orient="auto"><path d="M 0 0 L 10 5 L 0 10 z" class="arrowMarkerPath" style="stroke-width: 1; stroke-dasharray: 1, 0;"/></marker><marker id="my-svg_flowchart-v2-pointStart" class="marker flowchart-v2" viewBox="0 0 10 10" refX="4.5" refY="5" markerUnits="userSpaceOnUse" markerWidth="8" markerHeight="8" orient="auto"><path d="M 0 5 L 10 10 L 10 0 z" class="arrowMarkerPath" style="stroke-width: 1; stroke-dasharray: 1, 0;"/></marker><marker id="my-svg_flowchart-v2-circleEnd" class="marker flowchart-v2" viewBox="0 0 10 10" refX="11" refY="5" markerUnits="userSpaceOnUse" markerWidth="11" markerHeight="11" orient="auto"><circle cx="5" cy="5" r="5" class="arrowMarkerPath" style="stroke-width: 1; stroke-dasharray: 1, 0;"/></marker><marker id="my-svg_flowchart-v2-circleStart" class="marker flowchart-v2" viewBox="0 0 10 10" refX="-1" refY="5" markerUnits="userSpaceOnUse" markerWidth="11" markerHeight="11" orient="auto"><circle cx="5" cy="5" r="5" class="arrowMarkerPath" style="stroke-width: 1; stroke-dasharray: 1, 0;"/></marker><marker id="my-svg_flowchart-v2-crossEnd" class="marker cross flowchart-v2" viewBox="0 0 11 11" refX="12" refY="5.2" markerUnits="userSpaceOnUse" markerWidth="11" markerHeight="11" orient="auto"><path d="M 1,1 l 9,9 M 10,1 l -9,9" class="arrowMarkerPath" style="stroke-width: 2; stroke-dasharray: 1, 0;"/></marker><marker id="my-svg_flowchart-v2-crossStart" class="marker cross flowchart-v2" viewBox="0 0 11 11" refX="-1" refY="5.2" markerUnits="userSpaceOnUse" markerWidth="11" markerHeight="11" orient="auto"><path d="M 1,1 l 9,9 M 10,1 l -9,9" class="arrowMarkerPath" style="stroke-width: 2; stroke-dasharray: 1, 0;"/></marker><g class="root"><g class="clusters"><g class="cluster" id="subGraph1" data-look="classic"><rect style="" x="118.671875" y="850" width="663.28125" height="366.4258728027344"/><g class="cluster-label" transform="translate(369.109375, 850)"><foreignObject width="162.40625" height="24"><div xmlns="http://www.w3.org/1999/xhtml" style="display: table-cell; white-space: nowrap; line-height: 1.5; max-width: 200px; text-align: center;"><span class="nodeLabel"><p>GPU 1: vLLM Inference</p></span></div></foreignObject></g></g><g class="cluster" id="subGraph0" data-look="classic"><rect style="" x="200.65625" y="264" width="733.5" height="512"/><g class="cluster-label" transform="translate(485.1328125, 264)"><foreignObject width="164.546875" height="24"><div xmlns="http://www.w3.org/1999/xhtml" style="display: table-cell; white-space: nowrap; line-height: 1.5; max-width: 200px; text-align: center;"><span class="nodeLabel"><p>GPU 0: PyTorch Trainer</p></span></div></foreignObject></g></g></g><g class="edgePaths"><path d="M570.576,62L558.597,68.167C546.617,74.333,522.658,86.667,510.679,98.333C498.699,110,498.699,121,498.699,126.5L498.699,132" id="L_Client_API_0" class="edge-thickness-normal edge-pattern-solid edge-thickness-normal edge-pattern-solid flowchart-link" style=";" data-edge="true" data-et="edge" data-id="L_Client_API_0" data-points="W3sieCI6NTcwLjU3NjQxNjAxNTYyNSwieSI6NjJ9LHsieCI6NDk4LjY5OTIxODc1LCJ5Ijo5OX0seyJ4Ijo0OTguNjk5MjE4NzUsInkiOjEzNn1d" marker-end="url(#my-svg_flowchart-v2-pointEnd)"/><path d="M553.472,190L565.982,196.167C578.492,202.333,603.512,214.667,616.021,227C628.531,239.333,628.531,251.667,628.531,261.333C628.531,271,628.531,278,628.531,281.5L628.531,285" id="L_API_Queue_0" class="edge-thickness-normal edge-pattern-solid edge-thickness-normal edge-pattern-solid flowchart-link" style=";" data-edge="true" data-et="edge" data-id="L_API_Queue_0" data-points="W3sieCI6NTUzLjQ3MjEwNjkzMzU5MzgsInkiOjE5MH0seyJ4Ijo2MjguNTMxMjUsInkiOjIyN30seyJ4Ijo2MjguNTMxMjUsInkiOjI2NH0seyJ4Ijo2MjguNTMxMjUsInkiOjI4OX1d" marker-end="url(#my-svg_flowchart-v2-pointEnd)"/><path d="M628.531,343L628.531,349.167C628.531,355.333,628.531,367.667,628.531,379.333C628.531,391,628.531,402,628.531,407.5L628.531,413" id="L_Queue_Clock_0" class="edge-thickness-normal edge-pattern-solid edge-thickness-normal edge-pattern-solid flowchart-link" style=";" data-edge="true" data-et="edge" data-id="L_Queue_Clock_0" data-points="W3sieCI6NjI4LjUzMTI1LCJ5IjozNDN9LHsieCI6NjI4LjUzMTI1LCJ5IjozODB9LHsieCI6NjI4LjUzMTI1LCJ5Ijo0MTd9XQ==" marker-end="url(#my-svg_flowchart-v2-pointEnd)"/><path d="M628.531,471L628.531,477.167C628.531,483.333,628.531,495.667,628.531,507.333C628.531,519,628.531,530,628.531,535.5L628.531,541" id="L_Clock_Swap_0" class="edge-thickness-normal edge-pattern-solid edge-thickness-normal edge-pattern-solid flowchart-link" style=";" data-edge="true" data-et="edge" data-id="L_Clock_Swap_0" data-points="W3sieCI6NjI4LjUzMTI1LCJ5Ijo0NzF9LHsieCI6NjI4LjUzMTI1LCJ5Ijo1MDh9LHsieCI6NjI4LjUzMTI1LCJ5Ijo1NDV9XQ==" marker-end="url(#my-svg_flowchart-v2-pointEnd)"/><path d="M523.625,597.541L497.297,603.951C470.969,610.36,418.313,623.18,391.984,635.09C365.656,647,365.656,658,365.656,663.5L365.656,669" id="L_Swap_Train_0" class="edge-thickness-normal edge-pattern-solid edge-thickness-normal edge-pattern-solid flowchart-link" style=";" data-edge="true" data-et="edge" data-id="L_Swap_Train_0" data-points="W3sieCI6NTIzLjYyNSwieSI6NTk3LjU0MDY1NjIwNTQyMDl9LHsieCI6MzY1LjY1NjI1LCJ5Ijo2MzZ9LHsieCI6MzY1LjY1NjI1LCJ5Ijo2NzN9XQ==" marker-end="url(#my-svg_flowchart-v2-pointEnd)"/><path d="M684.901,599L697.776,605.167C710.65,611.333,736.399,623.667,749.274,637.333C762.148,651,762.148,666,762.148,673.5L762.148,681" id="L_Swap_Save_0" class="edge-thickness-normal edge-pattern-solid edge-thickness-normal edge-pattern-solid flowchart-link" style=";" data-edge="true" data-et="edge" data-id="L_Swap_Save_0" data-points="W3sieCI6Njg0LjkwMTAwMDk3NjU2MjUsInkiOjU5OX0seyJ4Ijo3NjIuMTQ4NDM3NSwieSI6NjM2fSx7IngiOjc2Mi4xNDg0Mzc1LCJ5Ijo2ODV9XQ==" marker-end="url(#my-svg_flowchart-v2-pointEnd)"/><path d="M708.766,739L696.574,745.167C684.382,751.333,659.998,763.667,647.805,776C635.613,788.333,635.613,800.667,635.613,813C635.613,825.333,635.613,837.667,635.613,847.333C635.613,857,635.613,864,635.613,867.5L635.613,871" id="L_Save_RAMDisk_0" class="edge-thickness-normal edge-pattern-solid edge-thickness-normal edge-pattern-solid flowchart-link" style=";" data-edge="true" data-et="edge" data-id="L_Save_RAMDisk_0" data-points="W3sieCI6NzA4Ljc2NjQxODQ1NzAzMTIsInkiOjczOX0seyJ4Ijo2MzUuNjEzMjgxMjUsInkiOjc3Nn0seyJ4Ijo2MzUuNjEzMjgxMjUsInkiOjgxM30seyJ4Ijo2MzUuNjEzMjgxMjUsInkiOjg1MH0seyJ4Ijo2MzUuNjEzMjgxMjUsInkiOjg3NX1d" marker-end="url(#my-svg_flowchart-v2-pointEnd)"/><path d="M408.816,177.648L358.346,185.874C307.875,194.099,206.934,210.549,156.463,224.941C105.992,239.333,105.992,251.667,105.992,266.5C105.992,281.333,105.992,298.667,105.992,318C105.992,337.333,105.992,358.667,105.992,380C105.992,401.333,105.992,422.667,105.992,444C105.992,465.333,105.992,486.667,105.992,508C105.992,529.333,105.992,550.667,105.992,572C105.992,593.333,105.992,614.667,105.992,638C105.992,661.333,105.992,686.667,105.992,710C105.992,733.333,105.992,754.667,132.427,771.5C158.862,788.333,211.732,800.667,238.167,813C264.602,825.333,264.602,837.667,264.602,849.869C264.602,862.071,264.602,874.142,264.602,880.177L264.602,886.213" id="L_API_IPC_0" class="edge-thickness-normal edge-pattern-solid edge-thickness-normal edge-pattern-solid flowchart-link" style=";" data-edge="true" data-et="edge" data-id="L_API_IPC_0" data-points="W3sieCI6NDA4LjgxNjQwNjI1LCJ5IjoxNzcuNjQ4MzI0NDMwNzgzOTN9LHsieCI6MTA1Ljk5MjE4NzUsInkiOjIyN30seyJ4IjoxMDUuOTkyMTg3NSwieSI6MjY0fSx7IngiOjEwNS45OTIxODc1LCJ5IjozMTZ9LHsieCI6MTA1Ljk5MjE4NzUsInkiOjM4MH0seyJ4IjoxMDUuOTkyMTg3NSwieSI6NDQ0fSx7IngiOjEwNS45OTIxODc1LCJ5Ijo1MDh9LHsieCI6MTA1Ljk5MjE4NzUsInkiOjU3Mn0seyJ4IjoxMDUuOTkyMTg3NSwieSI6NjM2fSx7IngiOjEwNS45OTIxODc1LCJ5Ijo3MTJ9LHsieCI6MTA1Ljk5MjE4NzUsInkiOjc3Nn0seyJ4IjoyNjQuNjAxNTYyNSwieSI6ODEzfSx7IngiOjI2NC42MDE1NjI1LCJ5Ijo4NTB9LHsieCI6MjY0LjYwMTU2MjUsInkiOjg5MC4yMTI5MzY0MDEzNjcyfV0=" marker-end="url(#my-svg_flowchart-v2-pointEnd)"/><path d="M264.602,944.213L264.602,952.915C264.602,961.617,264.602,979.022,285.598,993.708C306.594,1008.394,348.587,1020.362,369.584,1026.346L390.58,1032.33" id="L_IPC_vLLM_0" class="edge-thickness-normal edge-pattern-solid edge-thickness-normal edge-pattern-solid flowchart-link" style=";" data-edge="true" data-et="edge" data-id="L_IPC_vLLM_0" data-points="W3sieCI6MjY0LjYwMTU2MjUsInkiOjk0NC4yMTI5MzY0MDEzNjcyfSx7IngiOjI2NC42MDE1NjI1LCJ5Ijo5OTYuNDI1ODcyODAyNzM0NH0seyJ4IjozOTQuNDI2NzU3ODEyNSwieSI6MTAzMy40MjU4NzI4MDI3MzQ0fV0=" marker-end="url(#my-svg_flowchart-v2-pointEnd)"/><path d="M635.613,959.426L635.613,965.593C635.613,971.759,635.613,984.093,622.113,996.159C608.613,1008.225,581.613,1020.025,568.113,1025.924L554.613,1031.824" id="L_RAMDisk_vLLM_0" class="edge-thickness-normal edge-pattern-solid edge-thickness-normal edge-pattern-solid flowchart-link" style=";" data-edge="true" data-et="edge" data-id="L_RAMDisk_vLLM_0" data-points="W3sieCI6NjM1LjYxMzI4MTI1LCJ5Ijo5NTkuNDI1ODcyODAyNzM0NH0seyJ4Ijo2MzUuNjEzMjgxMjUsInkiOjk5Ni40MjU4NzI4MDI3MzQ0fSx7IngiOjU1MC45NDczMjY2NjAxNTYyLCJ5IjoxMDMzLjQyNTg3MjgwMjczNDR9XQ==" marker-end="url(#my-svg_flowchart-v2-pointEnd)"/><path d="M489.164,1087.426L489.164,1091.593C489.164,1095.759,489.164,1104.093,489.164,1111.759C489.164,1119.426,489.164,1126.426,489.164,1129.926L489.164,1133.426" id="L_vLLM_Gen_0" class="edge-thickness-normal edge-pattern-solid edge-thickness-normal edge-pattern-solid flowchart-link" style=";" data-edge="true" data-et="edge" data-id="L_vLLM_Gen_0" data-points="W3sieCI6NDg5LjE2NDA2MjUsInkiOjEwODcuNDI1ODcyODAyNzM0NH0seyJ4Ijo0ODkuMTY0MDYyNSwieSI6MTExMi40MjU4NzI4MDI3MzQ0fSx7IngiOjQ4OS4xNjQwNjI1LCJ5IjoxMTM3LjQyNTg3MjgwMjczNDR9XQ==" marker-end="url(#my-svg_flowchart-v2-pointEnd)"/><path d="M365.656,751L365.656,755.167C365.656,759.333,365.656,767.667,313.603,778C261.549,788.333,157.443,800.667,105.389,813C53.336,825.333,53.336,837.667,53.336,855.035C53.336,872.404,53.336,894.809,53.336,919.213C53.336,943.617,53.336,970.022,53.336,993.89C53.336,1017.759,53.336,1039.093,53.336,1058.426C53.336,1077.759,53.336,1095.093,53.336,1112.426C53.336,1129.759,53.336,1147.093,53.336,1164.426C53.336,1181.759,53.336,1199.093,53.336,1213.926C53.336,1228.759,53.336,1241.093,135.535,1256.405C217.735,1271.718,382.134,1290.01,464.333,1299.156L546.532,1308.302" id="L_Train_Store_0" class="edge-thickness-normal edge-pattern-solid edge-thickness-normal edge-pattern-solid flowchart-link" style=";" data-edge="true" data-et="edge" data-id="L_Train_Store_0" data-points="W3sieCI6MzY1LjY1NjI1LCJ5Ijo3NTF9LHsieCI6MzY1LjY1NjI1LCJ5Ijo3NzZ9LHsieCI6NTMuMzM1OTM3NSwieSI6ODEzfSx7IngiOjUzLjMzNTkzNzUsInkiOjg1MH0seyJ4Ijo1My4zMzU5Mzc1LCJ5Ijo5MTcuMjEyOTM2NDAxMzY3Mn0seyJ4Ijo1My4zMzU5Mzc1LCJ5Ijo5OTYuNDI1ODcyODAyNzM0NH0seyJ4Ijo1My4zMzU5Mzc1LCJ5IjoxMDYwLjQyNTg3MjgwMjczNDR9LHsieCI6NTMuMzM1OTM3NSwieSI6MTExMi40MjU4NzI4MDI3MzQ0fSx7IngiOjUzLjMzNTkzNzUsInkiOjExNjQuNDI1ODcyODAyNzM0NH0seyJ4Ijo1My4zMzU5Mzc1LCJ5IjoxMjE2LjQyNTg3MjgwMjczNDR9LHsieCI6NTMuMzM1OTM3NSwieSI6MTI1My40MjU4NzI4MDI3MzQ0fSx7IngiOjU1MC41MDc4MTI1LCJ5IjoxMzA4Ljc0NDQ3MzgyMTQxfV0=" marker-end="url(#my-svg_flowchart-v2-pointEnd)"/><path d="M489.164,1191.426L489.164,1195.593C489.164,1199.759,489.164,1208.093,489.164,1218.426C489.164,1228.759,489.164,1241.093,501.987,1253.148C514.81,1265.203,540.455,1276.98,553.278,1282.868L566.101,1288.757" id="L_Gen_Store_0" class="edge-thickness-normal edge-pattern-solid edge-thickness-normal edge-pattern-solid flowchart-link" style=";" data-edge="true" data-et="edge" data-id="L_Gen_Store_0" data-points="W3sieCI6NDg5LjE2NDA2MjUsInkiOjExOTEuNDI1ODcyODAyNzM0NH0seyJ4Ijo0ODkuMTY0MDYyNSwieSI6MTIxNi40MjU4NzI4MDI3MzQ0fSx7IngiOjQ4OS4xNjQwNjI1LCJ5IjoxMjUzLjQyNTg3MjgwMjczNDR9LHsieCI6NTY5LjczNTcxNzc3MzQzNzUsInkiOjEyOTAuNDI1ODcyODAyNzM0NH1d" marker-end="url(#my-svg_flowchart-v2-pointEnd)"/><path d="M798.067,739L806.271,745.167C814.474,751.333,830.882,763.667,839.085,776C847.289,788.333,847.289,800.667,847.289,813C847.289,825.333,847.289,837.667,847.289,855.035C847.289,872.404,847.289,894.809,847.289,919.213C847.289,943.617,847.289,970.022,847.289,993.89C847.289,1017.759,847.289,1039.093,847.289,1058.426C847.289,1077.759,847.289,1095.093,847.289,1112.426C847.289,1129.759,847.289,1147.093,847.289,1164.426C847.289,1181.759,847.289,1199.093,847.289,1213.926C847.289,1228.759,847.289,1241.093,824.473,1253.934C801.657,1266.776,756.026,1280.126,733.21,1286.801L710.394,1293.476" id="L_Save_Store_0" class="edge-thickness-normal edge-pattern-solid edge-thickness-normal edge-pattern-solid flowchart-link" style=";" data-edge="true" data-et="edge" data-id="L_Save_Store_0" data-points="W3sieCI6Nzk4LjA2NzEzODY3MTg3NSwieSI6NzM5fSx7IngiOjg0Ny4yODkwNjI1LCJ5Ijo3NzZ9LHsieCI6ODQ3LjI4OTA2MjUsInkiOjgxM30seyJ4Ijo4NDcuMjg5MDYyNSwieSI6ODUwfSx7IngiOjg0Ny4yODkwNjI1LCJ5Ijo5MTcuMjEyOTM2NDAxMzY3Mn0seyJ4Ijo4NDcuMjg5MDYyNSwieSI6OTk2LjQyNTg3MjgwMjczNDR9LHsieCI6ODQ3LjI4OTA2MjUsInkiOjEwNjAuNDI1ODcyODAyNzM0NH0seyJ4Ijo4NDcuMjg5MDYyNSwieSI6MTExMi40MjU4NzI4MDI3MzQ0fSx7IngiOjg0Ny4yODkwNjI1LCJ5IjoxMTY0LjQyNTg3MjgwMjczNDR9LHsieCI6ODQ3LjI4OTA2MjUsInkiOjEyMTYuNDI1ODcyODAyNzM0NH0seyJ4Ijo4NDcuMjg5MDYyNSwieSI6MTI1My40MjU4NzI4MDI3MzQ0fSx7IngiOjcwNi41NTQ2ODc1LCJ5IjoxMjk0LjU5OTI1OTQ2NzQ5NjN9XQ==" marker-end="url(#my-svg_flowchart-v2-pointEnd)"/><path d="M690.129,45.576L746.62,54.48C803.112,63.384,916.095,81.192,972.587,100.763C1029.078,120.333,1029.078,141.667,1029.078,163C1029.078,184.333,1029.078,205.667,1029.078,222.5C1029.078,239.333,1029.078,251.667,1029.078,266.5C1029.078,281.333,1029.078,298.667,1029.078,318C1029.078,337.333,1029.078,358.667,1029.078,380C1029.078,401.333,1029.078,422.667,1029.078,444C1029.078,465.333,1029.078,486.667,1029.078,508C1029.078,529.333,1029.078,550.667,1029.078,572C1029.078,593.333,1029.078,614.667,1029.078,638C1029.078,661.333,1029.078,686.667,1029.078,710C1029.078,733.333,1029.078,754.667,1029.078,771.5C1029.078,788.333,1029.078,800.667,1029.078,813C1029.078,825.333,1029.078,837.667,1029.078,855.035C1029.078,872.404,1029.078,894.809,1029.078,919.213C1029.078,943.617,1029.078,970.022,1029.078,993.89C1029.078,1017.759,1029.078,1039.093,1029.078,1058.426C1029.078,1077.759,1029.078,1095.093,1029.078,1112.426C1029.078,1129.759,1029.078,1147.093,1029.078,1164.426C1029.078,1181.759,1029.078,1199.093,1029.078,1213.926C1029.078,1228.759,1029.078,1241.093,975.983,1255.743C922.887,1270.393,816.696,1287.361,763.6,1295.844L710.505,1304.328" id="L_Client_Store_0" class="edge-thickness-normal edge-pattern-solid edge-thickness-normal edge-pattern-solid flowchart-link" style=";" data-edge="true" data-et="edge" data-id="L_Client_Store_0" data-points="W3sieCI6NjkwLjEyODkwNjI1LCJ5Ijo0NS41NzYyNjMzNTk5MTY4OH0seyJ4IjoxMDI5LjA3ODEyNSwieSI6OTl9LHsieCI6MTAyOS4wNzgxMjUsInkiOjE2M30seyJ4IjoxMDI5LjA3ODEyNSwieSI6MjI3fSx7IngiOjEwMjkuMDc4MTI1LCJ5IjoyNjR9LHsieCI6MTAyOS4wNzgxMjUsInkiOjMxNn0seyJ4IjoxMDI5LjA3ODEyNSwieSI6MzgwfSx7IngiOjEwMjkuMDc4MTI1LCJ5Ijo0NDR9LHsieCI6MTAyOS4wNzgxMjUsInkiOjUwOH0seyJ4IjoxMDI5LjA3ODEyNSwieSI6NTcyfSx7IngiOjEwMjkuMDc4MTI1LCJ5Ijo2MzZ9LHsieCI6MTAyOS4wNzgxMjUsInkiOjcxMn0seyJ4IjoxMDI5LjA3ODEyNSwieSI6Nzc2fSx7IngiOjEwMjkuMDc4MTI1LCJ5Ijo4MTN9LHsieCI6MTAyOS4wNzgxMjUsInkiOjg1MH0seyJ4IjoxMDI5LjA3ODEyNSwieSI6OTE3LjIxMjkzNjQwMTM2NzJ9LHsieCI6MTAyOS4wNzgxMjUsInkiOjk5Ni40MjU4NzI4MDI3MzQ0fSx7IngiOjEwMjkuMDc4MTI1LCJ5IjoxMDYwLjQyNTg3MjgwMjczNDR9LHsieCI6MTAyOS4wNzgxMjUsInkiOjExMTIuNDI1ODcyODAyNzM0NH0seyJ4IjoxMDI5LjA3ODEyNSwieSI6MTE2NC40MjU4NzI4MDI3MzQ0fSx7IngiOjEwMjkuMDc4MTI1LCJ5IjoxMjE2LjQyNTg3MjgwMjczNDR9LHsieCI6MTAyOS4wNzgxMjUsInkiOjEyNTMuNDI1ODcyODAyNzM0NH0seyJ4Ijo3MDYuNTU0Njg3NSwieSI6MTMwNC45NTkxNjcxMjY5MDA2fV0=" marker-end="url(#my-svg_flowchart-v2-pointEnd)"/></g><g class="edgeLabels"><g class="edgeLabel" transform="translate(498.69921875, 99)"><g class="label" data-id="L_Client_API_0" transform="translate(-55.1875, -12)"><foreignObject width="110.375" height="24"><div xmlns="http://www.w3.org/1999/xhtml" class="labelBkg" style="display: table-cell; white-space: nowrap; line-height: 1.5; max-width: 200px; text-align: center;"><span class="edgeLabel"><p>POST /api/v1/*</p></span></div></foreignObject></g></g><g class="edgeLabel" transform="translate(628.53125, 227)"><g class="label" data-id="L_API_Queue_0" transform="translate(-87.625, -12)"><foreignObject width="175.25" height="24"><div xmlns="http://www.w3.org/1999/xhtml" class="labelBkg" style="display: table-cell; white-space: nowrap; line-height: 1.5; max-width: 200px; text-align: center;"><span class="edgeLabel"><p>Enqueue train/save reqs</p></span></div></foreignObject></g></g><g class="edgeLabel" transform="translate(628.53125, 380)"><g class="label" data-id="L_Queue_Clock_0" transform="translate(-49.578125, -12)"><foreignObject width="99.15625" height="24"><div xmlns="http://www.w3.org/1999/xhtml" class="labelBkg" style="display: table-cell; white-space: nowrap; line-height: 1.5; max-width: 200px; text-align: center;"><span class="edgeLabel"><p>Drain &amp; Batch</p></span></div></foreignObject></g></g><g class="edgeLabel"><g class="label" data-id="L_Clock_Swap_0" transform="translate(0, 0)"><foreignObject width="0" height="0"><div xmlns="http://www.w3.org/1999/xhtml" class="labelBkg" style="display: table-cell; white-space: nowrap; line-height: 1.5; max-width: 200px; text-align: center;"><span class="edgeLabel"></span></div></foreignObject></g></g><g class="edgeLabel"><g class="label" data-id="L_Swap_Train_0" transform="translate(0, 0)"><foreignObject width="0" height="0"><div xmlns="http://www.w3.org/1999/xhtml" class="labelBkg" style="display: table-cell; white-space: nowrap; line-height: 1.5; max-width: 200px; text-align: center;"><span class="edgeLabel"></span></div></foreignObject></g></g><g class="edgeLabel"><g class="label" data-id="L_Swap_Save_0" transform="translate(0, 0)"><foreignObject width="0" height="0"><div xmlns="http://www.w3.org/1999/xhtml" class="labelBkg" style="display: table-cell; white-space: nowrap; line-height: 1.5; max-width: 200px; text-align: center;"><span class="edgeLabel"></span></div></foreignObject></g></g><g class="edgeLabel" transform="translate(635.61328125, 813)"><g class="label" data-id="L_Save_RAMDisk_0" transform="translate(-62.0234375, -12)"><foreignObject width="124.046875" height="24"><div xmlns="http://www.w3.org/1999/xhtml" class="labelBkg" style="display: table-cell; white-space: nowrap; line-height: 1.5; max-width: 200px; text-align: center;"><span class="edgeLabel"><p>Sync .safetensors</p></span></div></foreignObject></g></g><g class="edgeLabel" transform="translate(105.9921875, 508)"><g class="label" data-id="L_API_IPC_0" transform="translate(-74.6640625, -12)"><foreignObject width="149.328125" height="24"><div xmlns="http://www.w3.org/1999/xhtml" class="labelBkg" style="display: table-cell; white-space: nowrap; line-height: 1.5; max-width: 200px; text-align: center;"><span class="edgeLabel"><p>Route inference reqs</p></span></div></foreignObject></g></g><g class="edgeLabel"><g class="label" data-id="L_IPC_vLLM_0" transform="translate(0, 0)"><foreignObject width="0" height="0"><div xmlns="http://www.w3.org/1999/xhtml" class="labelBkg" style="display: table-cell; white-space: nowrap; line-height: 1.5; max-width: 200px; text-align: center;"><span class="edgeLabel"></span></div></foreignObject></g></g><g class="edgeLabel" transform="translate(635.61328125, 996.4258728027344)"><g class="label" data-id="L_RAMDisk_vLLM_0" transform="translate(-65.4296875, -12)"><foreignObject width="130.859375" height="24"><div xmlns="http://www.w3.org/1999/xhtml" class="labelBkg" style="display: table-cell; white-space: nowrap; line-height: 1.5; max-width: 200px; text-align: center;"><span class="edgeLabel"><p>Load LoRARequest</p></span></div></foreignObject></g></g><g class="edgeLabel"><g class="label" data-id="L_vLLM_Gen_0" transform="translate(0, 0)"><foreignObject width="0" height="0"><div xmlns="http://www.w3.org/1999/xhtml" class="labelBkg" style="display: table-cell; white-space: nowrap; line-height: 1.5; max-width: 200px; text-align: center;"><span class="edgeLabel"></span></div></foreignObject></g></g><g class="edgeLabel" transform="translate(53.3359375, 1060.4258728027344)"><g class="label" data-id="L_Train_Store_0" transform="translate(-45.3359375, -12)"><foreignObject width="90.671875" height="24"><div xmlns="http://www.w3.org/1999/xhtml" class="labelBkg" style="display: table-cell; white-space: nowrap; line-height: 1.5; max-width: 200px; text-align: center;"><span class="edgeLabel"><p>Write Future</p></span></div></foreignObject></g></g><g class="edgeLabel" transform="translate(489.1640625, 1253.4258728027344)"><g class="label" data-id="L_Gen_Store_0" transform="translate(-45.3359375, -12)"><foreignObject width="90.671875" height="24"><div xmlns="http://www.w3.org/1999/xhtml" class="labelBkg" style="display: table-cell; white-space: nowrap; line-height: 1.5; max-width: 200px; text-align: center;"><span class="edgeLabel"><p>Write Future</p></span></div></foreignObject></g></g><g class="edgeLabel" transform="translate(847.2890625, 1060.4258728027344)"><g class="label" data-id="L_Save_Store_0" transform="translate(-45.3359375, -12)"><foreignObject width="90.671875" height="24"><div xmlns="http://www.w3.org/1999/xhtml" class="labelBkg" style="display: table-cell; white-space: nowrap; line-height: 1.5; max-width: 200px; text-align: center;"><span class="edgeLabel"><p>Write Future</p></span></div></foreignObject></g></g><g class="edgeLabel" transform="translate(1029.078125, 636)"><g class="label" data-id="L_Client_Store_0" transform="translate(-74.921875, -12)"><foreignObject width="149.84375" height="24"><div xmlns="http://www.w3.org/1999/xhtml" class="labelBkg" style="display: table-cell; white-space: nowrap; line-height: 1.5; max-width: 200px; text-align: center;"><span class="edgeLabel"><p>Poll /retrieve_future</p></span></div></foreignObject></g></g></g><g class="nodes"><g class="node default" id="flowchart-Client-0" transform="translate(623.02734375, 35)"><rect class="basic label-container" style="" x="-67.1015625" y="-27" width="134.203125" height="54"/><g class="label" style="" transform="translate(-37.1015625, -12)"><rect/><foreignObject width="74.203125" height="24"><div xmlns="http://www.w3.org/1999/xhtml" style="display: table-cell; white-space: nowrap; line-height: 1.5; max-width: 200px; text-align: center;"><span class="nodeLabel"><p>Client SDK</p></span></div></foreignObject></g></g><g class="node default" id="flowchart-API-1" transform="translate(498.69921875, 163)"><rect class="basic label-container" style="" x="-89.8828125" y="-27" width="179.765625" height="54"/><g class="label" style="" transform="translate(-59.8828125, -12)"><rect/><foreignObject width="119.765625" height="24"><div xmlns="http://www.w3.org/1999/xhtml" style="display: table-cell; white-space: nowrap; line-height: 1.5; max-width: 200px; text-align: center;"><span class="nodeLabel"><p>FastAPI Gateway</p></span></div></foreignObject></g></g><g class="node default" id="flowchart-Queue-3" transform="translate(628.53125, 316)"><rect class="basic label-container" style="" x="-106.2265625" y="-27" width="212.453125" height="54"/><g class="label" style="" transform="translate(-76.2265625, -12)"><rect/><foreignObject width="152.453125" height="24"><div xmlns="http://www.w3.org/1999/xhtml" style="display: table-cell; white-space: nowrap; line-height: 1.5; max-width: 200px; text-align: center;"><span class="nodeLabel"><p>Async Request Queue</p></span></div></foreignObject></g></g><g class="node default" id="flowchart-Clock-5" transform="translate(628.53125, 444)"><rect class="basic label-container" style="" x="-97.359375" y="-27" width="194.71875" height="54"/><g class="label" style="" transform="translate(-67.359375, -12)"><rect/><foreignObject width="134.71875" height="24"><div xmlns="http://www.w3.org/1999/xhtml" style="display: table-cell; white-space: nowrap; line-height: 1.5; max-width: 200px; text-align: center;"><span class="nodeLabel"><p>Clock Cycle Engine</p></span></div></foreignObject></g></g><g class="node default" id="flowchart-Swap-7" transform="translate(628.53125, 572)"><rect class="basic label-container" style="" x="-104.90625" y="-27" width="209.8125" height="54"/><g class="label" style="" transform="translate(-74.90625, -12)"><rect/><foreignObject width="149.8125" height="24"><div xmlns="http://www.w3.org/1999/xhtml" style="display: table-cell; white-space: nowrap; line-height: 1.5; max-width: 200px; text-align: center;"><span class="nodeLabel"><p>set_active_adapter()</p></span></div></foreignObject></g></g><g class="node default" id="flowchart-Train-9" transform="translate(365.65625, 712)"><rect class="basic label-container" style="" x="-130" y="-39" width="260" height="78"/><g class="label" style="" transform="translate(-100, -24)"><rect/><foreignObject width="200" height="48"><div xmlns="http://www.w3.org/1999/xhtml" style="display: table; white-space: break-spaces; line-height: 1.5; max-width: 200px; text-align: center; width: 200px;"><span class="nodeLabel"><p>Forward/Backward &amp; Optim</p></span></div></foreignObject></g></g><g class="node default" id="flowchart-Save-11" transform="translate(762.1484375, 712)"><rect class="basic label-container" style="" x="-118.734375" y="-27" width="237.46875" height="54"/><g class="label" style="" transform="translate(-88.734375, -12)"><rect/><foreignObject width="177.46875" height="24"><div xmlns="http://www.w3.org/1999/xhtml" style="display: table-cell; white-space: nowrap; line-height: 1.5; max-width: 200px; text-align: center;"><span class="nodeLabel"><p>model.save_pretrained()</p></span></div></foreignObject></g></g><g class="node default" id="flowchart-RAMDisk-13" transform="translate(635.61328125, 917.2129364013672)"><path d="M0,15.141955835962145 a96,15.141955835962145 0,0,0 192,0 a96,15.141955835962145 0,0,0 -192,0 l0,54.14195583596214 a96,15.141955835962145 0,0,0 192,0 l0,-54.14195583596214" class="basic label-container" style="" transform="translate(-96, -42.21293375394322)"/><g class="label" style="" transform="translate(-88.5, -2)"><rect/><foreignObject width="177" height="24"><div xmlns="http://www.w3.org/1999/xhtml" style="display: table-cell; white-space: nowrap; line-height: 1.5; max-width: 200px; text-align: center;"><span class="nodeLabel"><p>RAM Disk (/tmp/kube-rl)</p></span></div></foreignObject></g></g><g class="node default" id="flowchart-IPC-15" transform="translate(264.6015625, 917.2129364013672)"><rect class="basic label-container" style="" x="-95.1796875" y="-27" width="190.359375" height="54"/><g class="label" style="" transform="translate(-65.1796875, -12)"><rect/><foreignObject width="130.359375" height="24"><div xmlns="http://www.w3.org/1999/xhtml" style="display: table-cell; white-space: nowrap; line-height: 1.5; max-width: 200px; text-align: center;"><span class="nodeLabel"><p>HTTP / HTTPX IPC</p></span></div></foreignObject></g></g><g class="node default" id="flowchart-vLLM-17" transform="translate(489.1640625, 1060.4258728027344)"><rect class="basic label-container" style="" x="-117.2109375" y="-27" width="234.421875" height="54"/><g class="label" style="" transform="translate(-87.2109375, -12)"><rect/><foreignObject width="174.421875" height="24"><div xmlns="http://www.w3.org/1999/xhtml" style="display: table-cell; white-space: nowrap; line-height: 1.5; max-width: 200px; text-align: center;"><span class="nodeLabel"><p>vLLM Worker Subprocess</p></span></div></foreignObject></g></g><g class="node default" id="flowchart-Gen-21" transform="translate(489.1640625, 1164.4258728027344)"><rect class="basic label-container" style="" x="-126.6796875" y="-27" width="253.359375" height="54"/><g class="label" style="" transform="translate(-96.6796875, -12)"><rect/><foreignObject width="193.359375" height="24"><div xmlns="http://www.w3.org/1999/xhtml" style="display: table-cell; white-space: nowrap; line-height: 1.5; max-width: 200px; text-align: center;"><span class="nodeLabel"><p>Generate (PagedAttention)</p></span></div></foreignObject></g></g><g class="node default" id="flowchart-Store-23" transform="translate(628.53125, 1317.4258728027344)"><rect class="basic label-container" style="" x="-78.0234375" y="-27" width="156.046875" height="54"/><g class="label" style="" transform="translate(-48.0234375, -12)"><rect/><foreignObject width="96.046875" height="24"><div xmlns="http://www.w3.org/1999/xhtml" style="display: table-cell; white-space: nowrap; line-height: 1.5; max-width: 200px; text-align: center;"><span class="nodeLabel"><p>Futures Store</p></span></div></foreignObject></g></g></g></g></g></svg>